<svg width="21" height="17" viewBox="0 0 21 17" fill="none" xmlns="http://www.w3.org/2000/svg">
<path d="M7.20655 7.75719C7.98812 8.12006 8.58826 8.66438 9.00696 9.39013C9.45358 10.088 9.67689 10.9114 9.67689 11.8605C9.67689 13.2561 9.23027 14.3866 8.33704 15.2519C7.44381 16.1173 6.29936 16.5499 4.90369 16.5499C3.50802 16.5499 2.36357 16.1173 1.47034 15.2519C0.577109 14.3866 0.130494 13.2561 0.130494 11.8605C0.130494 11.2185 0.214234 10.5764 0.381714 9.93444C0.549195 9.29243 0.926026 8.34337 1.51221 7.08727L4.1919 0.932357H9.17444L7.20655 7.75719ZM18.1765 7.75719C18.9581 8.12006 19.5582 8.66438 19.9769 9.39013C20.4236 10.088 20.6469 10.9114 20.6469 11.8605C20.6469 13.2561 20.2002 14.3866 19.307 15.2519C18.4138 16.1173 17.2693 16.5499 15.8737 16.5499C14.478 16.5499 13.3335 16.1173 12.4403 15.2519C11.5471 14.3866 11.1005 13.2561 11.1005 11.8605C11.1005 11.2185 11.1842 10.5764 11.3517 9.93444C11.5192 9.29243 11.896 8.34337 12.4822 7.08727L15.1619 0.932357H20.1444L18.1765 7.75719Z" fill="#EBEBEB"/>
</svg>
