<svg width="14" height="18" viewBox="0 0 14 18" fill="none" xmlns="http://www.w3.org/2000/svg">
<path d="M6.2806 17.6371C0.983281 10.2318 0 9.4718 0 6.75025C0 3.02231 3.13399 0.000244141 7 0.000244141C10.866 0.000244141 14 3.02231 14 6.75025C14 9.4718 13.0167 10.2318 7.7194 17.6371C7.37177 18.1213 6.6282 18.1213 6.2806 17.6371ZM7 9.56275C8.61084 9.56275 9.91667 8.30355 9.91667 6.75025C9.91667 5.19694 8.61084 3.93774 7 3.93774C5.38916 3.93774 4.08333 5.19694 4.08333 6.75025C4.08333 8.30355 5.38916 9.56275 7 9.56275Z" fill="white"/>
</svg>
