<svg width="16" height="13" viewBox="0 0 16 13" fill="none" xmlns="http://www.w3.org/2000/svg">
<path d="M14.399 0.000244141H1.59902C0.719023 0.000244141 0.00702343 0.731494 0.00702343 1.62524L-0.000976562 11.3752C-0.000976562 12.269 0.719023 13.0002 1.59902 13.0002H14.399C15.279 13.0002 15.999 12.269 15.999 11.3752V1.62524C15.999 0.731494 15.279 0.000244141 14.399 0.000244141ZM14.079 3.45337L8.42302 7.04462C8.16702 7.20712 7.83102 7.20712 7.57502 7.04462L1.91902 3.45337C1.83881 3.40763 1.76856 3.34584 1.71253 3.27174C1.65651 3.19763 1.61587 3.11275 1.59308 3.02223C1.57029 2.93172 1.56583 2.83744 1.57995 2.74512C1.59407 2.6528 1.62649 2.56434 1.67525 2.48511C1.724 2.40588 1.78808 2.33753 1.8636 2.28418C1.93913 2.23083 2.02452 2.1936 2.11462 2.17474C2.20472 2.15588 2.29765 2.15578 2.38779 2.17445C2.47792 2.19312 2.56339 2.23018 2.63902 2.28337L7.99902 5.68774L13.359 2.28337C13.4347 2.23018 13.5201 2.19312 13.6103 2.17445C13.7004 2.15578 13.7933 2.15588 13.8834 2.17474C13.9735 2.1936 14.0589 2.23083 14.1344 2.28418C14.21 2.33753 14.274 2.40588 14.3228 2.48511C14.3716 2.56434 14.404 2.6528 14.4181 2.74512C14.4322 2.83744 14.4278 2.93172 14.405 3.02223C14.3822 3.11275 14.3415 3.19763 14.2855 3.27174C14.2295 3.34584 14.1592 3.40763 14.079 3.45337Z" fill="white"/>
</svg>
