<svg width="278" height="212" viewBox="0 0 278 212" fill="none" xmlns="http://www.w3.org/2000/svg">
<path d="M95.8816 92.6434C106.472 97.5693 114.604 104.958 120.278 114.81C126.329 124.282 129.355 135.46 129.355 148.343C129.355 167.289 123.303 182.635 111.2 194.381C99.0966 206.127 83.5891 212 64.6776 212C45.766 212 30.2585 206.127 18.1551 194.381C6.0517 182.635 0 167.289 0 148.343C0 139.628 1.13469 130.913 3.40408 122.198C5.67347 113.483 10.7796 100.601 18.7224 83.5496L55.0326 0H122.547L95.8816 92.6434ZM244.527 92.6434C255.117 97.5693 263.249 104.958 268.922 114.81C274.974 124.282 278 135.46 278 148.343C278 167.289 271.948 182.635 259.845 194.381C247.742 206.127 232.234 212 213.322 212C194.411 212 178.903 206.127 166.8 194.381C154.697 182.635 148.645 167.289 148.645 148.343C148.645 139.628 149.78 130.913 152.049 122.198C154.318 113.483 159.424 100.601 167.367 83.5496L203.678 0H271.192L244.527 92.6434Z" fill="#8EBF22" fill-opacity="0.8"/>
</svg>
